<svg xmlns="http://www.w3.org/2000/svg" width="146" height="59" viewBox="0 0 146 59">
  <g fill-rule="evenodd" transform="translate(0 1)">
    <path d="M4.20703125,50.3125 L4.9765625,50.3125 L4.9765625,56 L4.20703125,56 L4.20703125,51.6640625 L4.18359375,51.65625 L1.4453125,56 L0.67578125,56 L0.67578125,50.3125 L1.4453125,50.3125 L1.4453125,54.6445312 L1.46875,54.6523438 L4.20703125,50.3125 Z M10.5898438,56 L9.8203125,56 L9.8203125,53.4882812 L7.05859375,53.4882812 L7.05859375,56 L6.2890625,56 L6.2890625,50.3125 L7.05859375,50.3125 L7.05859375,52.8828125 L9.8203125,52.8828125 L9.8203125,50.3125 L10.5898438,50.3125 L10.5898438,56 Z M15.8945312,50.9179688 L14.0195312,50.9179688 L14.0195312,56 L13.25,56 L13.25,50.9179688 L11.3984375,50.9179688 L11.3984375,50.3125 L15.8945312,50.3125 L15.8945312,50.9179688 Z M19.8085938,53.3632812 L17.4726562,53.3632812 L17.4726562,55.3984375 L20.2070312,55.3984375 L20.2070312,56 L16.703125,56 L16.703125,50.3125 L20.1640625,50.3125 L20.1640625,50.9179688 L17.4726562,50.9179688 L17.4726562,52.7578125 L19.8085938,52.7578125 L19.8085938,53.3632812 Z M21.8867188,53.71875 L21.8867188,56 L21.1171875,56 L21.1171875,50.3125 L23.2929688,50.3125 C23.8997426,50.3125 24.3717431,50.4687484 24.7089844,50.78125 C25.0462256,51.0937516 25.2148438,51.5052058 25.2148438,52.015625 C25.2148438,52.5312526 25.0462256,52.9440089 24.7089844,53.2539062 C24.3717431,53.5638036 23.8997426,53.71875 23.2929688,53.71875 L21.8867188,53.71875 Z M21.8867188,53.1171875 L23.2929688,53.1171875 C23.6783873,53.1171875 23.9661449,53.0136729 24.15625,52.8066406 C24.3463551,52.5996083 24.4414062,52.3385432 24.4414062,52.0234375 C24.4414062,51.7083318 24.3457041,51.4453136 24.1542969,51.234375 C23.9628897,51.0234364 23.6757832,50.9179688 23.2929688,50.9179688 L21.8867188,50.9179688 L21.8867188,53.1171875 Z M30.5039062,56 L29.734375,56 L29.734375,53.4882812 L26.9726562,53.4882812 L26.9726562,56 L26.203125,56 L26.203125,50.3125 L26.9726562,50.3125 L26.9726562,52.8828125 L29.734375,52.8828125 L29.734375,50.3125 L30.5039062,50.3125 L30.5039062,56 Z M34.9375,53.3632812 L32.6015625,53.3632812 L32.6015625,55.3984375 L35.3359375,55.3984375 L35.3359375,56 L31.8320312,56 L31.8320312,50.3125 L35.2929688,50.3125 L35.2929688,50.9179688 L32.6015625,50.9179688 L32.6015625,52.7578125 L34.9375,52.7578125 L34.9375,53.3632812 Z M40.2226562,50.9179688 L38.3476562,50.9179688 L38.3476562,56 L37.578125,56 L37.578125,50.9179688 L35.7265625,50.9179688 L35.7265625,50.3125 L40.2226562,50.3125 L40.2226562,50.9179688 Z M43.3242188,53.8984375 L41.0195312,53.8984375 L41.0195312,53.296875 L43.3242188,53.296875 L43.3242188,53.8984375 Z M47.4570312,54.9335938 L47.4804688,54.9335938 L49.296875,50.3125 L50.2539062,50.3125 L50.2539062,56 L49.484375,56 L49.484375,51.7382812 L49.4609375,51.734375 L47.7382812,56 L47.203125,56 L45.4296875,51.59375 L45.40625,51.5976562 L45.40625,56 L44.6367188,56 L44.6367188,50.3125 L45.6484375,50.3125 L47.4570312,54.9335938 Z M54.5234375,54.5351562 L52.3828125,54.5351562 L51.875,56 L51.0898438,56 L53.140625,50.3125 L53.8007812,50.3125 L55.8085938,56 L55.0234375,56 L54.5234375,54.5351562 Z M52.6054688,53.890625 L54.3046875,53.890625 L53.4765625,51.4492188 L53.453125,51.4492188 L52.6054688,53.890625 Z M60.1054688,50.9179688 L57.3867188,50.9179688 L57.3867188,56 L56.6171875,56 L56.6171875,50.3125 L60.1054688,50.3125 L60.1054688,50.9179688 Z M63.96875,54.5351562 L61.828125,54.5351562 L61.3203125,56 L60.5351562,56 L62.5859375,50.3125 L63.2460938,50.3125 L65.2539062,56 L64.46875,56 L63.96875,54.5351562 Z M62.0507812,53.890625 L63.75,53.890625 L62.921875,51.4492188 L62.8984375,51.4492188 L62.0507812,53.890625 Z M70.2109375,51.8515625 C70.2109375,52.1145846 70.1223967,52.3548166 69.9453125,52.5722656 C69.7682283,52.7897146 69.5234391,52.9596348 69.2109375,53.0820312 C69.5625018,53.1914068 69.8313793,53.3593739 70.0175781,53.5859375 C70.203777,53.8125011 70.296875,54.08854 70.296875,54.4140625 C70.296875,54.9375026 70.0891948,55.3463527 69.6738281,55.640625 C69.2584615,55.9348973 68.7148471,56.0820312 68.0429688,56.0820312 C67.4544241,56.0820312 66.9492209,55.9427097 66.5273438,55.6640625 C66.1054666,55.3854153 65.9010416,54.9791693 65.9140625,54.4453125 L65.921875,54.421875 L66.65625,54.421875 C66.65625,54.7187515 66.785155,54.9694 67.0429688,55.1738281 C67.3007825,55.3782562 67.6341125,55.4804688 68.0429688,55.4804688 C68.5065127,55.4804688 68.8697904,55.3834645 69.1328125,55.1894531 C69.3958346,54.9954417 69.5273438,54.7421891 69.5273438,54.4296875 C69.5273438,54.0833316 69.4075533,53.8261727 69.1679688,53.6582031 C68.9283842,53.4902335 68.5742211,53.40625 68.1054688,53.40625 L67.390625,53.40625 L67.390625,52.796875 L68.1054688,52.796875 C68.558596,52.796875 68.8945302,52.7109384 69.1132812,52.5390625 C69.3320323,52.3671866 69.4414062,52.132814 69.4414062,51.8359375 C69.4414062,51.5442694 69.3235689,51.3046884 69.0878906,51.1171875 C68.8522124,50.9296866 68.5039086,50.8359375 68.0429688,50.8359375 C67.6757794,50.8359375 67.3665377,50.9283845 67.1152344,51.1132812 C66.863931,51.298178 66.7382812,51.5273424 66.7382812,51.8007812 L66.0039062,51.8007812 L66,51.7773438 C65.9843749,51.3190081 66.1751282,50.946616 66.5722656,50.6601562 C66.969403,50.3736965 67.4596325,50.2304688 68.0429688,50.2304688 C68.7122429,50.2304688 69.2408835,50.3710923 69.6289062,50.6523438 C70.016929,50.9335952 70.2109375,51.3333307 70.2109375,51.8515625 Z M75.0429688,50.3125 L75.8125,50.3125 L75.8125,56 L75.0429688,56 L75.0429688,51.6640625 L75.0195312,51.65625 L72.28125,56 L71.5117188,56 L71.5117188,50.3125 L72.28125,50.3125 L72.28125,54.6445312 L72.3046875,54.6523438 L75.0429688,50.3125 Z M81.4257812,56 L80.65625,56 L80.65625,53.4882812 L77.8945312,53.4882812 L77.8945312,56 L77.125,56 L77.125,50.3125 L77.8945312,50.3125 L77.8945312,52.8828125 L80.65625,52.8828125 L80.65625,50.3125 L81.4257812,50.3125 L81.4257812,56 Z M85.4882812,50.3125 L85.4882812,55.3984375 L87.8007812,55.3984375 L87.8007812,50.3125 L88.5664062,50.3125 L88.5664062,55.3984375 L90.8671875,55.3984375 L90.8671875,50.3125 L91.6367188,50.3125 L91.6367188,56 L84.71875,56 L84.71875,50.3125 L85.4882812,50.3125 Z M96.40625,50.3125 L97.1757812,50.3125 L97.1757812,56 L96.40625,56 L96.40625,51.6640625 L96.3828125,51.65625 L93.6445312,56 L92.875,56 L92.875,50.3125 L93.6445312,50.3125 L93.6445312,54.6445312 L93.6679688,54.6523438 L96.40625,50.3125 Z M102.789062,56 L102.019531,56 L102.019531,53.4882812 L99.2578125,53.4882812 L99.2578125,56 L98.4882812,56 L98.4882812,50.3125 L99.2578125,50.3125 L99.2578125,52.8828125 L102.019531,52.8828125 L102.019531,50.3125 L102.789062,50.3125 L102.789062,56 Z M109.648438,50.3125 L110.417969,50.3125 L110.417969,56 L109.648438,56 L109.648438,51.6640625 L109.625,51.65625 L106.886719,56 L106.117188,56 L106.117188,50.3125 L106.886719,50.3125 L106.886719,54.6445312 L106.910156,54.6523438 L109.648438,50.3125 Z M118.984375,57.3945312 L118.214844,57.3945312 L118.214844,56 L114.035156,56 L114.035156,57.4023438 L113.265625,57.4023438 L113.265625,55.3984375 L113.671875,55.3984375 C114.015627,55.3984375 114.272786,55.1621117 114.443359,54.6894531 C114.613933,54.2167945 114.722656,53.5247441 114.769531,52.6132812 L114.898438,50.3125 L118.207031,50.3125 L118.207031,55.3984375 L118.984375,55.3984375 L118.984375,57.3945312 Z M115.546875,52.6132812 C115.513021,53.261722 115.44336,53.8183571 115.337891,54.2832031 C115.232421,54.7480492 115.079428,55.1197903 114.878906,55.3984375 L117.4375,55.3984375 L117.4375,50.9179688 L115.636719,50.9179688 L115.546875,52.6132812 Z M123.414062,50.3125 L124.183594,50.3125 L124.183594,56 L123.414062,56 L123.414062,51.6640625 L123.390625,51.65625 L120.652344,56 L119.882812,56 L119.882812,50.3125 L120.652344,50.3125 L120.652344,54.6445312 L120.675781,54.6523438 L123.414062,50.3125 Z M129.554688,54.1796875 L129.5625,54.203125 C129.572917,54.7369818 129.385419,55.183592 129,55.5429688 C128.614581,55.9023455 128.105472,56.0820312 127.472656,56.0820312 C126.829424,56.0820312 126.305341,55.8541689 125.900391,55.3984375 C125.495441,54.9427061 125.292969,54.3645868 125.292969,53.6640625 L125.292969,52.6523438 C125.292969,51.9518194 125.495441,51.3730492 125.900391,50.9160156 C126.305341,50.4589821 126.829424,50.2304688 127.472656,50.2304688 C128.115889,50.2304688 128.627602,50.401691 129.007812,50.7441406 C129.388023,51.0865903 129.572917,51.5403618 129.5625,52.1054688 L129.554688,52.1289062 L128.816406,52.1289062 C128.816406,51.7304668 128.69922,51.4153657 128.464844,51.1835938 C128.230468,50.9518218 127.899742,50.8359375 127.472656,50.8359375 C127.042967,50.8359375 126.700522,51.0091129 126.445312,51.3554688 C126.190103,51.7018246 126.0625,52.1315079 126.0625,52.6445312 L126.0625,53.6640625 C126.0625,54.1822943 126.190103,54.6145816 126.445312,54.9609375 C126.700522,55.3072934 127.042967,55.4804688 127.472656,55.4804688 C127.899742,55.4804688 128.230468,55.3652355 128.464844,55.1347656 C128.69922,54.9042957 128.816406,54.5859395 128.816406,54.1796875 L129.554688,54.1796875 Z M131.832031,53.4296875 L131.332031,53.4296875 L131.332031,56 L130.5625,56 L130.5625,50.3125 L131.332031,50.3125 L131.332031,52.828125 L131.753906,52.828125 L133.863281,50.3125 L134.730469,50.3125 L134.738281,50.3320312 L132.433594,53.0234375 L134.902344,55.9804688 L134.894531,56 L133.960938,56 L131.832031,53.4296875 Z M139.992188,53.6640625 C139.992188,54.3593785 139.776695,54.9361956 139.345703,55.3945312 C138.914711,55.8528669 138.355472,56.0820312 137.667969,56.0820312 C137.003903,56.0820312 136.464195,55.8528669 136.048828,55.3945312 C135.633461,54.9361956 135.425781,54.3593785 135.425781,53.6640625 L135.425781,52.6523438 C135.425781,51.959632 135.633461,51.3828148 136.048828,50.921875 C136.464195,50.4609352 137.003903,50.2304688 137.667969,50.2304688 C138.355472,50.2304688 138.914711,50.4602842 139.345703,50.9199219 C139.776695,51.3795596 139.992188,51.9570278 139.992188,52.6523438 L139.992188,53.6640625 Z M139.222656,52.6445312 C139.222656,52.1236953 139.082033,51.6966162 138.800781,51.3632812 C138.51953,51.0299463 138.141929,50.8632812 137.667969,50.8632812 C137.22005,50.8632812 136.862632,51.0299463 136.595703,51.3632812 C136.328775,51.6966162 136.195312,52.1236953 136.195312,52.6445312 L136.195312,53.6640625 C136.195312,54.1901068 136.328775,54.61979 136.595703,54.953125 C136.862632,55.28646 137.22005,55.453125 137.667969,55.453125 C138.144534,55.453125 138.522785,55.287111 138.802734,54.9550781 C139.082684,54.6230452 139.222656,54.192711 139.222656,53.6640625 L139.222656,52.6445312 Z M141.101562,56 L141.101562,50.3125 L142.957031,50.3125 C143.550784,50.3125 144.015623,50.4407539 144.351562,50.6972656 C144.687502,50.9537773 144.855469,51.3385391 144.855469,51.8515625 C144.855469,52.0963554 144.779949,52.3157542 144.628906,52.5097656 C144.477864,52.703777 144.277345,52.851562 144.027344,52.953125 C144.399741,53.0052086 144.69466,53.1666653 144.912109,53.4375 C145.129558,53.7083347 145.238281,54.0273419 145.238281,54.3945312 C145.238281,54.9153672 145.069012,55.3131497 144.730469,55.5878906 C144.391925,55.8626316 143.933597,56 143.355469,56 L141.101562,56 Z M141.871094,53.3320312 L141.871094,55.3984375 L143.355469,55.3984375 C143.707033,55.3984375 143.979817,55.3118498 144.173828,55.1386719 C144.36784,54.9654939 144.464844,54.7200537 144.464844,54.4023438 C144.464844,54.087238 144.365886,53.8333343 144.167969,53.640625 C143.970051,53.4479157 143.703127,53.3450521 143.367188,53.3320312 L141.871094,53.3320312 Z M141.871094,52.7304688 L143.117188,52.7304688 C143.403647,52.7304688 143.636718,52.6516935 143.816406,52.4941406 C143.996095,52.3365878 144.085938,52.1171889 144.085938,51.8359375 C144.085938,51.5286443 143.988933,51.2988289 143.794922,51.1464844 C143.60091,50.9941399 143.321616,50.9179688 142.957031,50.9179688 L141.871094,50.9179688 L141.871094,52.7304688 Z"/>
    <path stroke="#000" d="M120.2173,20.9488065 C120.644087,19.8725697 125.292969,19.7233836 125.292969,20.7307055 C125.292969,21.7380274 122.177122,34.6569341 122.847889,36.1597455 C123.518656,37.6625569 126.315522,37.3830729 127.555526,36.7714092 C128.79553,36.1597455 129.592668,35.8478225 130.239796,34.0154434 C130.886923,32.1830643 132.097145,20.8986064 133.205305,20.5 C134.313466,20.1013936 137.238144,19.9051772 137.513575,21.2454317 C137.789006,22.5856861 133.931408,36.6533503 133.205305,38.2455791 C132.479203,39.837808 130.723604,41.0766825 127.964492,41.5083983 C125.20538,41.9401141 121.961312,41.5083983 120.414555,40.6894277 C118.867798,39.8704572 117.834614,38.8525794 118.021881,35.5612383 C118.209149,32.2698971 119.790513,22.0250433 120.2173,20.9488065 Z M88.1206803,33.3447435 C88.5783025,33.1006906 91.1628123,33.0557067 93.0067514,33.0189241 C94.9405565,32.9803488 96.6390021,32.9645498 96.9774294,33.3447435 C97.6385568,34.0874629 95.6510086,40.3939241 94.719568,41.1606529 C94.2763005,41.5255349 92.2761631,41.4934084 90.4515695,41.5164663 C88.442134,41.5418601 86.5981306,41.5846039 86.1916753,41.1606529 C85.4161533,40.3517488 87.1831332,33.8447435 88.1206803,33.3447435 Z M62.4347479,0.247290355 C63.2031242,-0.21634759 68.8232896,0.281008012 74.8452372,0.247290355 C81.8117597,0.208283902 89.2896235,-0.2890717 89.9919255,0.247290355 C91.3013062,1.24729036 80.9015389,39.6365267 80.2508383,40.6449137 C79.6001377,41.6533006 72.5006396,40.7775049 71.9108764,40.6449137 C71.5177009,40.5565195 71.5177009,40.0906451 71.9108764,39.2472904 L80.2508383,7.24729036 C68.640642,7.76809104 62.1727845,7.76809104 60.8472656,7.24729036 C58.8589873,6.46608933 60.7774713,1.24729036 62.4347479,0.247290355 Z M48.7840291,0.283032408 C49.0961249,-0.00724713052 56.6574326,-0.172500299 56.916281,0.283032408 C57.1751293,0.738565114 49.4052859,40.3850268 48.7840291,41.1580324 C48.1627723,41.931038 40.5153422,41.931038 40.0198396,41.1580324 C39.5243371,40.3850268 48.4719333,0.573311946 48.7840291,0.283032408 Z M3,41.2691345 C2.56370204,40.1672605 11.3178589,3.39413448 12.4667143,1.39413448 C13.6155697,-0.60586552 28.4447555,0.0246710547 31.8059975,0.39413448 C35.1672395,0.763597904 38.1068394,3.23633965 39.0626897,5.31523707 C39.5292221,6.32990739 40.8206785,9.44801995 40.4597426,12.3941345 C40.0811785,15.484138 38.0129918,18.4049771 36.9120265,19.3941345 C35.478251,20.6823037 32.681484,22.4778115 28.5217256,24.7806579 C33.4576499,33.9735009 35.8795696,39.4696597 35.7874847,41.2691345 C35.7788748,41.4373846 33.075699,41.4373846 27.6779572,41.2691345 C21.334441,28.8311728 18.0848343,22.3586946 17.929137,21.8516996 C17.6955911,21.0912073 20.165991,20.6058655 21.7612885,20 C23.356586,19.3941345 26.0875857,18.4518785 26.9313541,17.742198 C27.7751224,17.0325176 29.515016,14.824197 29.515016,13 C29.515016,11.175803 29.0193459,9.60608996 27.6779572,8.76913448 C26.3365686,7.932179 21.9991681,8.30241399 20.6301061,8.71432198 C19.7173981,8.9889273 18.817075,10.8821981 17.929137,14.3941345 C14.5664463,32.0480448 12.7456388,41.0063782 12.4667143,41.2691345 C12.0483277,41.663269 3.43629796,42.3710085 3,41.2691345 Z M99,41.3301016 C98.8096954,40.9957099 103.106013,21.7542707 103.673132,20.7205635 C104.240251,19.6868562 111.560503,20.0127513 113.21974,20.2037098 C114.878978,20.3946683 116.330077,21.6727139 116.801921,22.7471995 C117.032219,23.2716355 117.669731,24.8832433 117.49156,26.4059533 C117.304686,28.0030328 116.28375,29.512679 115.740271,30.0239286 C115.032505,30.6897235 113.651914,31.6177382 111.598498,32.8079728 C114.035059,37.5593269 115.230611,40.4000365 115.185155,41.3301016 C115.178779,41.4605426 111.39545,41.536171 111.181982,41.3301016 C110.968515,41.1240321 106.484879,31.6871933 106.369592,31.2941301 C106.254305,30.9010668 107.473789,30.6502162 108.261289,30.3370724 C109.048788,30.0239286 110.396914,29.5369202 110.81343,29.1701193 C111.229947,28.8033184 112.088825,27.6619399 112.088825,26.7190971 C112.088825,25.7762542 111.844143,24.9649424 111.181982,24.5323589 C110.519821,24.0997754 108.378715,24.2911327 107.702894,24.5040289 C107.252346,24.6459596 106.807912,25.6245035 106.369592,27.4396605 C104.790139,36.3965535 103.891319,41.0267005 103.673132,41.3301016 C103.345851,41.7852031 99.1903046,41.6644932 99,41.3301016 Z"/>
  </g>
</svg>
